<svg xmlns="http://www.w3.org/2000/svg" viewBox="0 0 64 64">
  <defs>
    <linearGradient id="bg" x1="0%" y1="0%" x2="100%" y2="100%">
      <stop offset="0%" stop-color="#0ea5e9"/>
      <stop offset="100%" stop-color="#2563eb"/>
    </linearGradient>
  </defs>
  <rect width="64" height="64" rx="16" fill="url(#bg)"/>
  <circle cx="22" cy="46" r="7" fill="#eff6ff"/>
  <circle cx="42" cy="40" r="7" fill="#eff6ff"/>
  <path d="M29 18v26.5c0 1.2-.5 2.4-1.4 3.2-.9.9-2 1.3-3.3 1.3h-1.5V25.5L49 21v19.5c0 1.2-.5 2.4-1.4 3.2-.9.9-2 1.3-3.3 1.3h-1.5V18.2c0-.5-.4-.8-.8-.7L29 20Z" fill="#eff6ff"/>
  <path d="M29 20v5.5L42 23v-4.8c0-.5-.4-.8-.8-.7L29 20Z" fill="#bfdbfe"/>
</svg>
